<?xml version="1.0" encoding="UTF-8"?> <svg xmlns="http://www.w3.org/2000/svg" width="42" height="41" viewBox="0 0 42 41" fill="none"><g clip-path="url(#clip0_650_378)"><path d="M20.7422 41C32.064 41 41.2422 31.8218 41.2422 20.5C41.2422 9.17816 32.064 0 20.7422 0C9.42035 0 0.242188 9.17816 0.242188 20.5C0.242188 31.8218 9.42035 41 20.7422 41Z" fill="#E2001A"></path><path d="M10.9609 8.83423L22.6408 8.88142C22.6408 8.88142 30.8144 8.68744 30.8781 15.7513C30.9436 23.009 24.4445 23.2175 24.4445 23.2175C24.4445 23.2175 26.8649 23.6494 28.7184 26.5375C30.9601 30.0317 32.9829 31.1022 34.673 31.1938C34.673 31.1938 26.1523 33.8246 24.449 31.2469C20.7444 25.6347 18.4393 20.9554 17.2526 20.7103L21.2391 20.73C21.2391 20.73 24.8524 20.9046 25.0006 17.5044C25.1487 14.1042 21.7459 14.0368 21.7459 14.0368L16.9999 14.0496L16.9933 31.8169L10.9609 31.8202V8.83423Z" fill="white"></path></g><defs><clipPath id="clip0_650_378"><rect width="41" height="41" fill="white" transform="translate(0.242188)"></rect></clipPath></defs></svg> 