<?xml version="1.0" encoding="utf-8"?>
<!-- Generator: Adobe Illustrator 24.3.2, SVG Export Plug-In . SVG Version: 6.00 Build 0)  -->
<svg version="1.1" id="Livello_1" xmlns="http://www.w3.org/2000/svg" xmlns:xlink="http://www.w3.org/1999/xlink" x="0px" y="0px"
	 viewBox="0 0 496.088 179.604" style="enable-background:new 0 0 496.088 179.604;" xml:space="preserve">
<style type="text/css">
	.st0{fill:#FFFFFF;}
</style>
<g>
	<path class="st0" d="M485.108,120.376c-0.221,0.62-0.373,1.275-0.674,1.854c-1.613,3.105-4.206,4.784-7.675,5.112
		c-0.667,0.063-1.343,0.023-2.015,0.023c-86.249,0.001-172.499,0.001-258.748,0.001c-0.622,0-1.243,0-1.873,0
		c-0.084,0.456-0.165,0.804-0.209,1.156c-0.385,3.093-2.149,5.127-4.919,6.374c-1.815,0.818-3.741,1.2-5.717,1.317
		c-1.788,0.106-3.578,0.193-5.368,0.22c-6.574,0.1-12.206,2.482-16.963,6.966c-2.378,2.242-4.705,4.539-7.053,6.813
		c-9.848,9.542-21.232,16.482-34.468,20.26c-4.176,1.192-8.43,1.998-12.77,2.328c-1.425,0.108-2.841,0.331-4.261,0.502
		c-1.434,0-2.868,0-4.302,0c-1.645-0.173-3.286-0.395-4.935-0.509c-4.382-0.305-8.695-1.027-12.956-2.064
		c-12.368-3.009-23.297-8.814-32.845-17.172c-3.532-3.092-6.801-6.484-10.184-9.746c-2.031-1.959-4.066-3.912-6.457-5.445
		c-2.272-1.457-4.704-2.245-7.46-2.224c-4.521,0.035-9.044-0.081-13.564-0.199c-2.018-0.053-3.996-0.431-5.863-1.256
		c-2.094-0.925-3.322-2.509-3.637-4.782c-0.114-0.825-0.213-1.652-0.33-2.557c-1.021,0-1.958,0.037-2.892-0.007
		c-3.227-0.152-5.34-1.846-6.226-4.93c-0.121-0.42-0.312-0.82-0.47-1.229c0-20.866,0-41.732,0-62.598
		c0.18-0.405,0.398-0.798,0.535-1.218c0.949-2.892,2.977-4.383,6.007-4.392c0.751-0.002,1.502,0,2.196,0
		c0.252-0.493,0.437-0.85,0.617-1.21c0.937-1.877,2.27-3.38,3.966-4.643c3.152-2.347,6.711-3.052,10.518-2.87
		c4.034,0.192,8.056,0.163,12.057-0.443c3.508-0.531,6.769-1.655,9.484-4.051c0.637-0.563,1.323-1.074,1.939-1.658
		c5.023-4.758,10.446-8.988,16.422-12.494c0.114-0.067,0.219-0.147,0.358-0.241c-0.908-2.213-0.429-4.18,0.823-6.022
		c0.276-0.406,0.577-0.799,0.897-1.172c2.708-3.163,6.2-4.908,10.254-5.611c2.709-0.47,4.727,0.51,6.043,2.894
		c0.074,0.134,0.189,0.244,0.303,0.389c1.753-1.643,3.804-2.469,6.03-2.93c2.639-0.547,5.309-0.768,8-0.776
		c0.471-0.001,0.943-0.034,1.467-0.054c0-1.774-0.017-3.383,0.01-4.993c0.008-0.478,0.14-0.954,0.215-1.431
		c6.274,0,12.548,0,18.821,0c0.06,0.572,0.166,1.144,0.173,1.716c0.022,1.822,0.008,3.645,0.008,5.466
		c9.351-0.134,7.673-0.564,18.896,2.725c0.037-0.023,0.093-0.038,0.107-0.071c1.39-3.299,4.079-3.891,7.222-3.187
		c3.854,0.864,7.2,2.673,9.66,5.868c0.461,0.599,0.887,1.244,1.219,1.921c0.938,1.911,0.917,3.792-0.449,5.637
		c1.484,1.208,2.949,2.379,4.39,3.577c3.89,3.234,7.787,6.459,11.649,9.727c2.81,2.377,5.856,4.284,9.546,4.897
		c1.537,0.255,3.107,0.357,4.667,0.429c2.727,0.126,5.46,0.115,8.185,0.274c2.284,0.133,4.509,0.638,6.623,1.552
		c0.123,0.053,0.254,0.089,0.374,0.148c2.719,1.311,4.643,3.193,4.601,6.538c0.381,0.035,0.725,0.082,1.071,0.094
		c0.447,0.016,0.896,0.004,1.344,0.004c86.152,0,172.304-0.002,258.456,0.021c1.37,0,2.795,0.129,4.098,0.519
		c3.158,0.946,5.183,3.052,5.809,6.371c0.021,0.114,0.147,0.208,0.224,0.311C485.108,80.256,485.108,100.316,485.108,120.376z
		 M201.928,125.493c0.657,0,1.235,0,1.814,0c62.688,0,125.375,0,188.063,0c28.006,0,56.011-0.019,84.017,0.023
		c3.616,0.005,7.638-2.64,7.618-7.599c-0.074-18.312-0.027-36.624-0.037-54.936c0-0.758-0.041-1.527-0.179-2.27
		c-0.529-2.862-2.192-4.766-5.016-5.519c-0.98-0.261-2.035-0.33-3.056-0.33c-90.559-0.014-181.118-0.013-271.677-0.013
		c-0.486,0-0.971,0-1.547,0C201.928,78.438,201.928,101.918,201.928,125.493z M190.985,52.674c7.242,0,14.347,0,21.443,0
		c0.216-1.235-0.146-2.22-0.892-2.957c-0.751-0.742-1.623-1.414-2.553-1.91c-1.834-0.979-3.862-1.443-5.92-1.577
		c-2.812-0.183-5.635-0.181-8.451-0.308c-1.562-0.071-3.132-0.16-4.676-0.389c-4.062-0.603-7.501-2.524-10.598-5.15
		c-3.381-2.867-6.781-5.712-10.191-8.544c-1.925-1.598-3.888-3.149-5.821-4.711c-0.243,0.074-0.411,0.13-0.581,0.177
		c-3.733,1.035-7.355,0.728-10.842-0.955c-2.197-1.061-3.73-2.764-4.548-5.06c-0.328-0.921-0.537-1.89-0.736-2.85
		c-0.147-0.71-0.423-1.179-1.171-1.457c-4.3-1.6-8.683-2.813-13.307-2.825c-1.44-0.004-2.935-0.135-4.404,0.535
		c0,1.999,0,3.952,0,6.028c-6.753,0-13.397,0-20.154,0c0-2.356,0-4.625,0-6.933c-0.272-0.041-0.443-0.095-0.609-0.086
		c-2.011,0.104-4.031,0.126-6.028,0.355c-1.817,0.208-3.622,0.604-5.26,1.495c-1.844,1.004-3.196,2.359-3.622,4.55
		c-0.181,0.931-0.653,1.863-1.197,2.654c-1.208,1.759-2.822,3.128-4.728,4.093c-3.622,1.834-7.235,1.544-10.85-0.205
		c-3.265,1.912-6.486,3.944-9.434,6.355c-2.772,2.267-5.442,4.659-8.125,7.032c-2.59,2.291-5.457,4.047-8.872,4.797
		c-4.134,0.908-8.323,1.168-12.543,1.022c-1.164-0.04-2.327-0.126-3.49-0.131c-3.493-0.014-6.587,1.099-9.257,3.36
		c-1.13,0.957-1.981,2.108-2.677,3.663c9.371,0,18.489,0,27.671,0c0,25.001,0,49.876,0,74.899c-9.006,0-17.943,0-26.855,0
		c-0.432,2.853,0.66,4.845,3.104,5.823c0.372,0.149,0.761,0.261,1.15,0.361c2.313,0.591,4.677,0.768,7.052,0.783
		c3.585,0.023,7.17-0.003,10.755,0.014c0.712,0.003,1.431,0.063,2.134,0.175c2.868,0.458,5.329,1.83,7.52,3.642
		c1.964,1.624,3.812,3.391,5.666,5.143c3.025,2.861,5.908,5.881,9.039,8.62c6.578,5.755,13.865,10.429,22.001,13.713
		c8.544,3.448,17.431,5.214,26.634,5.576c7.391,0.291,14.653-0.393,21.784-2.368c12.547-3.476,23.428-9.895,32.925-18.72
		c2.886-2.682,5.635-5.512,8.522-8.194c2.981-2.769,6.341-4.958,10.294-6.117c2.851-0.836,5.769-1.17,8.738-1.248
		c2.186-0.057,4.38-0.22,6.547-0.512c1.927-0.26,3.723-0.98,5.133-2.411c1.136-1.153,1.703-2.539,1.723-4.268
		c-1.921,0-3.709,0-5.497,0c-1.748,0-3.495,0-5.243,0c-1.792,0-3.585,0.004-5.377-0.001c-1.77-0.004-3.54-0.017-5.326-0.026
		C190.985,102.585,190.985,77.741,190.985,52.674z M37.657,54.848c-0.565,0-1.005,0-1.444,0c-2.239,0-4.478,0-6.718,0
		c-4.254,0-8.509-0.006-12.763,0.003c-2.077,0.004-3.474,1.016-4.071,3.016c-0.188,0.628-0.232,1.318-0.233,1.98
		c-0.015,8.055-0.01,16.109-0.01,24.164c0,12.127-0.006,24.253,0.005,36.38c0.003,2.976,1.308,4.545,4.134,5.031
		c0.437,0.075,0.892,0.068,1.339,0.068c6.225,0.004,12.45,0.004,18.675,0c0.345,0,0.689-0.039,1.087-0.063
		C37.657,101.908,37.657,78.476,37.657,54.848z M110.151,18.71c5.193,0,10.229,0,15.291,0c0-3.743,0-7.387,0-11.07
		c-5.134,0-10.172,0-15.291,0C110.151,11.357,110.151,15,110.151,18.71z M151.708,13.513c-0.6,0.096-1.098,0.128-1.568,0.26
		c-1.07,0.3-2.289,1.506-2.173,2.314c0.199,1.379,0.284,2.759,1.252,3.983c2.356,2.978,5.35,4.799,9.052,5.494
		c0.74,0.139,1.513,0.269,2.253,0.203c2.514-0.227,3.748-2.279,2.773-4.613c-0.322-0.77-0.797-1.499-1.316-2.158
		c-2.036-2.587-4.769-4.123-7.887-5.018C153.284,13.744,152.435,13.651,151.708,13.513z M79.271,26.291
		c0.015-0.044,0.03-0.089,0.046-0.133c0.402-0.028,0.808-0.033,1.205-0.092c0.397-0.059,0.792-0.149,1.176-0.264
		c4.245-1.263,7.747-3.363,9.273-7.874c0.356-1.054,0.145-1.843-0.448-2.604c-0.99-1.272-2.421-1.554-3.882-1.293
		c-4.062,0.726-7.529,2.54-10,5.949c-0.463,0.639-0.834,1.387-1.07,2.141c-0.514,1.633,0.02,2.806,1.562,3.509
		C77.807,25.937,78.557,26.076,79.271,26.291z"/>
	<path class="st0" d="M397.132,146.997c0-3.67,0-7.282,0-10.99c0.764,0,1.536,0,2.416,0c-0.084,2.336-0.166,4.6-0.247,6.864
		c0.062,0.022,0.124,0.044,0.186,0.066c0.159-0.284,0.338-0.559,0.475-0.853c0.772-1.662,1.598-3.304,2.274-5.005
		c0.382-0.96,0.939-1.324,1.92-1.171c0.305,0.048,0.619,0.036,1.13,0.062c-0.12,2.325-0.238,4.622-0.356,6.92
		c0.082,0.03,0.164,0.061,0.247,0.091c1.153-2.324,2.306-4.647,3.477-7.006c0.739,0,1.443,0,2.33,0
		c-0.179,0.409-0.303,0.757-0.477,1.079c-1.549,2.874-3.192,5.701-4.625,8.631c-0.656,1.341-1.473,1.781-3.036,1.351
		c-0.113-2.44,0.384-4.949,0.316-7.718c-0.251,0.426-0.413,0.655-0.529,0.905c-0.853,1.822-1.695,3.648-2.543,5.472
		C399.307,147.382,399.306,147.382,397.132,146.997z"/>
	<path class="st0" d="M359.549,141.164c-0.533,2.007-1.055,3.974-1.581,5.956c-0.555,0-0.987,0-1.459,0
		c-0.079-0.338-0.147-0.626-0.233-0.989c-0.244,0.131-0.44,0.218-0.617,0.335c-1.166,0.773-2.418,1.108-3.819,0.838
		c-1.763-0.341-2.848-1.495-3.023-3.264c-0.34-3.439,2.194-7.274,5.525-8.137c1.007-0.261,2.147-0.269,3.181-0.106
		c1.689,0.265,2.532,1.575,2.461,3.546c-0.725,0-1.457,0-2.213,0c-0.813-1.856-2.311-2.319-4.037-1.103
		c-1.809,1.273-2.416,3.176-2.345,5.283c0.04,1.19,1.277,2.004,2.541,1.788c1.255-0.215,2.246-0.839,2.889-2.242
		c-0.814-0.038-1.534-0.071-2.411-0.112c0.159-0.645,0.291-1.181,0.441-1.791C356.41,141.164,357.912,141.164,359.549,141.164z"/>
	<path class="st0" d="M346.082,147.127c-0.838,0-1.542,0-2.34,0c-0.753-2.447-1.499-4.869-2.245-7.292
		c-0.074-0.007-0.148-0.014-0.222-0.021c-0.659,2.419-1.318,4.838-1.984,7.285c-0.715,0-1.362,0-2.196,0
		c0.996-3.774,1.96-7.424,2.935-11.119c0.87,0,1.66,0,2.514,0c0.716,2.358,1.425,4.688,2.133,7.018
		c0.086-0.001,0.172-0.003,0.258-0.004c0.63-2.329,1.26-4.658,1.899-7.021c0.741,0,1.397,0,2.208,0
		C348.04,139.747,347.062,143.431,346.082,147.127z"/>
	<path class="st0" d="M294.163,147.137c-0.825,0-1.489,0-2.338,0c-0.746-2.417-1.502-4.868-2.258-7.32
		c-0.072-0.006-0.144-0.012-0.215-0.018c-0.651,2.402-1.302,4.804-1.976,7.289c-0.665,0-1.311,0-2.137,0
		c0.819-3.759,1.939-7.367,2.851-11.097c0.829,0,1.62,0,2.532,0c0.7,2.301,1.408,4.629,2.116,6.957
		c0.09,0.008,0.181,0.017,0.271,0.025c0.307-1.122,0.619-2.242,0.921-3.365c0.313-1.163,0.617-2.328,0.951-3.59
		c0.698,0,1.386,0,2.218,0C296.121,139.725,295.156,143.38,294.163,147.137z"/>
	<path class="st0" d="M367.271,135.963c0.913,0,1.665,0,2.501,0c0.729,2.391,1.452,4.76,2.175,7.129
		c0.068-0.006,0.135-0.012,0.203-0.018c0.639-2.36,1.278-4.72,1.919-7.088c0.757,0,1.412,0,2.206,0
		c-0.995,3.758-1.964,7.412-2.946,11.119c-0.787,0-1.486,0-2.351,0c-0.741-2.391-1.499-4.835-2.257-7.28
		c-0.078,0.011-0.157,0.022-0.235,0.034c-0.647,2.399-1.293,4.798-1.954,7.248c-0.725,0-1.375,0-2.204,0
		C365.318,143.362,366.282,139.71,367.271,135.963z"/>
	<path class="st0" d="M417.419,135.566c0.356,0.037,0.713,0.064,1.067,0.111c1.689,0.226,2.826,1.263,2.93,2.971
		c0.199,3.251-0.889,5.997-3.676,7.85c-1.47,0.977-3.136,1.199-4.885,0.779c-1.433-0.344-2.23-1.258-2.51-2.645
		c-0.613-3.038,1.308-7.038,4.103-8.369c0.903-0.43,1.948-0.564,2.928-0.834C417.391,135.475,417.405,135.52,417.419,135.566z
		 M419.013,140.181c0.184-2.116-1.448-2.983-3.115-2.323c-0.71,0.281-1.404,0.804-1.894,1.393c-0.907,1.089-1.295,2.434-1.293,3.857
		c0.003,1.686,1.247,2.649,2.871,2.159c0.614-0.185,1.224-0.563,1.698-1.001C418.455,143.18,418.858,141.721,419.013,140.181z"/>
	<path class="st0" d="M421.417,147.111c1.018-3.84,1.978-7.463,2.955-11.146c2.109,0,4.165-0.061,6.216,0.022
		c1.323,0.054,2.121,1.175,1.95,2.547c-0.171,1.373-0.875,2.42-2.186,3.176c0.775,0.923,0.553,1.942,0.299,2.992
		c-0.183,0.756-0.235,1.543-0.359,2.408c-0.674,0-1.46,0-2.317,0c-0.278-0.798,0.08-1.516,0.235-2.226
		c0.424-1.937,0.253-2.177-1.769-2.184c-0.445-0.002-0.889,0-1.449,0c-0.419,1.48-0.828,2.924-1.248,4.411
		C422.987,147.111,422.291,147.111,421.417,147.111z M425.487,140.695c0.28,0.056,0.41,0.102,0.539,0.104
		c0.581,0.009,1.165,0.043,1.742-0.004c0.477-0.039,0.986-0.097,1.41-0.296c0.621-0.292,0.972-1.189,0.821-1.835
		c-0.173-0.745-0.802-0.762-1.377-0.788c-0.755-0.034-1.513-0.008-2.367-0.008C426.001,138.801,425.76,139.691,425.487,140.695z"/>
	<path class="st0" d="M272.006,141.791c0.767,0.706,0.664,1.559,0.447,2.468c-0.213,0.892-0.322,1.808-0.498,2.832
		c-0.628,0-1.403,0-2.229,0c-0.326-0.727-0.001-1.408,0.153-2.077c0.484-2.094,0.319-2.315-1.87-2.313c-0.4,0-0.801,0-1.329,0
		c-0.412,1.47-0.817,2.913-1.236,4.408c-0.722,0-1.374,0-2.025,0c-0.139-0.985,1.649-8.233,2.749-11.142
		c2.025,0,4.081-0.066,6.129,0.023c1.348,0.058,2.162,1.303,1.938,2.689C274.041,139.893,273.424,140.765,272.006,141.791z
		 M267.147,140.807c0.579,0,0.932,0.001,1.284,0c0.492-0.001,0.983,0.003,1.475-0.008c0.673-0.014,1.208-0.286,1.549-0.883
		c0.641-1.121,0.235-1.953-1.031-2.035c-0.796-0.052-1.599-0.01-2.478-0.01C267.687,138.826,267.445,139.715,267.147,140.807z"/>
	<path class="st0" d="M386.569,136.029c-0.179,0.685-0.323,1.238-0.505,1.933c-1.923,0-3.825,0-5.768,0
		c-0.234,0.807-0.43,1.479-0.667,2.295c1.833,0,3.519,0,5.327,0c-0.185,0.729-0.335,1.321-0.514,2.027c-1.789,0-3.519,0-5.315,0
		c-0.256,0.959-0.483,1.807-0.743,2.78c2.03,0,3.94,0,6.032,0c-0.183,0.756-0.334,1.378-0.497,2.051c-2.781,0-5.492,0-8.401,0
		c0.851-3.757,1.938-7.364,2.874-11.086C381.084,136.029,383.744,136.029,386.569,136.029z"/>
	<path class="st0" d="M434.79,147.132c-0.757,0-1.414,0-2.069,0c-0.07-0.991,1.975-9.123,2.8-11.16
		c0.279-0.018,0.587-0.049,0.894-0.056c0.397-0.01,0.794-0.002,1.356-0.002c-0.36,1.446-0.687,2.761-1.079,4.337
		c0.504-0.386,0.836-0.623,1.149-0.882c0.896-0.742,1.867-1.415,2.657-2.257c1.185-1.262,2.571-1.393,4.392-1.051
		c-1.935,1.56-3.717,2.995-5.552,4.475c0.987,2.164,1.944,4.263,3.005,6.591c-0.996,0.018-1.818,0.09-2.627,0.015
		c-0.259-0.024-0.569-0.392-0.706-0.674c-0.449-0.923-0.824-1.881-1.236-2.822c-0.178-0.405-0.378-0.799-0.583-1.227
		c-0.892,0.455-1.473,1.017-1.644,2.014C435.39,145.34,435.053,146.218,434.79,147.132z"/>
	<path class="st0" d="M323.123,143.577c0.687,0,1.306,0,1.996,0c0.08,0.3,0.104,0.622,0.249,0.876
		c0.167,0.292,0.394,0.67,0.674,0.757c1.054,0.327,2.153,0.36,3.076-0.331c0.341-0.255,0.628-0.82,0.612-1.23
		c-0.012-0.287-0.539-0.671-0.91-0.802c-0.88-0.312-1.815-0.464-2.707-0.747c-1.74-0.552-2.222-1.57-1.626-3.317
		c0.71-2.08,2.804-3.358,5.354-3.175c0.693,0.05,1.427,0.229,2.04,0.545c1.144,0.59,1.437,1.599,1.008,3.022
		c-0.634,0-1.29,0-1.937,0c-0.634-1.639-2.235-2.12-3.639-1.116c-0.431,0.308-0.771,0.736-0.598,1.237
		c0.105,0.302,0.521,0.583,0.858,0.7c0.884,0.306,1.807,0.495,2.703,0.768c1.903,0.58,2.455,1.753,1.681,3.59
		c-0.66,1.566-1.921,2.446-3.518,2.839c-1.046,0.258-2.115,0.286-3.192,0.053C323.355,146.837,322.597,145.629,323.123,143.577z"/>
	<path class="st0" d="M309.653,147.127c-0.781,0-1.44,0-2.297,0c0.828-3.795,1.951-7.428,2.871-11.149c0.808,0,1.506,0,2.345,0
		c-0.33,1.37-0.637,2.649-0.969,4.026c1.384,0.26,2.662,0.091,4.054,0.126c0.396-1.388,0.785-2.747,1.186-4.153
		c0.746,0,1.45,0,2.344,0c-0.992,3.75-1.965,7.429-2.947,11.141c-0.804,0-1.503,0-2.36,0c0.428-1.68,0.831-3.263,1.252-4.914
		c-1.423,0-2.75,0-4.138,0C310.55,143.831,310.118,145.418,309.653,147.127z"/>
	<path class="st0" d="M283.855,147.105c-0.929,0-1.664,0-2.467,0c-0.101-0.738-0.195-1.427-0.307-2.252
		c-1.151,0-2.256-0.026-3.358,0.019c-0.262,0.011-0.534,0.231-0.765,0.404c-0.132,0.099-0.191,0.296-0.284,0.448
		c-1.023,1.668-1.023,1.668-3.197,1.293c0.219-0.409,0.403-0.797,0.627-1.16c1.799-2.926,3.645-5.825,5.388-8.784
		c0.524-0.89,1.099-1.333,2.125-1.167c0.386,0.062,0.785,0.045,1.325,0.072C283.246,139.691,283.546,143.351,283.855,147.105z
		 M281.065,142.837c-0.068-1.311-0.129-2.488-0.191-3.666c-0.096-0.02-0.192-0.041-0.288-0.061
		c-0.706,1.189-1.413,2.379-2.213,3.727C279.372,142.837,280.109,142.837,281.065,142.837z"/>
	<path class="st0" d="M307.418,139.638c-0.682,0-1.383,0-2.091,0c-0.047-0.065-0.121-0.128-0.146-0.206
		c-0.523-1.632-1.868-2.181-3.283-1.205c-0.635,0.438-1.244,1.095-1.544,1.791c-0.451,1.046-0.791,2.202-0.868,3.332
		c-0.11,1.609,1.236,2.498,2.704,1.809c0.806-0.379,1.443-1.119,2.337-1.843c0.403,0,1.097,0,1.809,0
		c-0.839,3.105-4.692,5.016-7.494,3.775c-1.024-0.453-1.574-1.275-1.825-2.338c-0.834-3.545,2.054-8.25,5.604-8.923
		c0.967-0.183,2.069-0.06,3.027,0.212C307.145,136.468,307.8,137.945,307.418,139.638z"/>
	<path class="st0" d="M256.647,135.979c2.605,0,5.144,0,7.86,0c-0.144,0.628-0.277,1.204-0.429,1.867c-1.842,0-3.622,0-5.497,0
		c-0.24,0.866-0.46,1.66-0.728,2.628c1.654,0,3.152,0,4.796,0c-0.179,0.72-0.316,1.271-0.476,1.916c-1.586,0-3.139,0-4.791,0
		c-0.451,1.604-0.882,3.138-1.324,4.713c-0.761,0-1.451,0-2.344,0C254.709,143.327,255.672,139.677,256.647,135.979z"/>
	<path class="st0" d="M396.236,137.865c-1.128,0-2.146,0-3.321,0c-0.835,3.09-1.656,6.129-2.493,9.227c-0.776,0-1.501,0-2.354,0
		c0.803-3.076,1.576-6.035,2.4-9.185c-1.152,0-2.153,0-3.297,0c0.197-0.738,0.343-1.286,0.509-1.905c2.978,0,5.907,0,8.975,0
		C396.521,136.598,396.399,137.141,396.236,137.865z"/>
	<path class="st0" d="M320.546,147.114c-0.808,0-1.505,0-2.374,0c0.99-3.75,1.951-7.393,2.932-11.111c0.773,0,1.507,0,2.387,0
		C322.5,139.741,321.526,143.418,320.546,147.114z"/>
	<path class="st0" d="M335.029,147.111c-0.842,0-1.538,0-2.382,0c0.99-3.749,1.952-7.392,2.933-11.107c0.785,0,1.516,0,2.384,0
		C336.98,139.724,336.017,143.37,335.029,147.111z"/>
	<path class="st0" d="M284.028,84.617c-2.929,10.487-5.858,20.974-8.802,31.515c-2.471,0-4.864,0-7.361,0
		c0.414-10.729,0.824-21.363,1.235-31.997c-0.065-0.01-0.13-0.021-0.195-0.031c-1.749,10.66-3.498,21.32-5.256,32.039
		c-3.458,0-6.799,0-10.32,0c2.855-17.472,5.699-34.875,8.551-52.329c5.08,0,10.033,0,15.188,0c-0.049,7.701-0.6,15.347-0.634,23.044
		c2.092-7.654,4.184-15.308,6.295-23.03c5.084,0,10.123,0,15.354,0c-2.852,17.459-5.689,34.829-8.542,52.292
		c-3.424,0-6.796,0-10.324,0c1.718-10.535,3.42-20.976,5.123-31.417C284.236,84.674,284.132,84.646,284.028,84.617z"/>
	<path class="st0" d="M323.126,106.427c0.336-2.66,0.601-5.332,1.022-7.979c1.004-6.314,2.066-12.619,3.141-18.921
		c0.3-1.761,0.618-3.531,1.114-5.243c1.715-5.925,5.431-9.867,11.573-11.261c2.296-0.521,4.621-0.544,6.925-0.018
		c5.321,1.214,7.886,4.902,8.013,9.998c0.054,2.174-0.25,4.377-0.587,6.537c-1.082,6.935-2.238,13.858-3.403,20.779
		c-0.296,1.761-0.634,3.526-1.116,5.244c-1.559,5.548-4.888,9.48-10.568,11.129c-2.85,0.828-5.744,0.88-8.615,0.13
		c-5.213-1.361-7.019-5.396-7.362-9.307c-0.031-0.355-0.004-0.716-0.004-1.074C323.214,106.437,323.17,106.432,323.126,106.427z
		 M334.706,106.405c0.028,0.004,0.055,0.008,0.083,0.013c0,0.179,0.006,0.358-0.001,0.537c-0.025,0.585,0.134,1.106,0.73,1.293
		c0.622,0.195,1.291,0.166,1.727-0.388c0.323-0.41,0.603-0.907,0.73-1.408c0.34-1.341,0.638-2.697,0.864-4.062
		c1.42-8.553,2.826-17.107,4.208-25.666c0.199-1.232,0.306-2.487,0.323-3.734c0.005-0.405-0.314-0.967-0.658-1.188
		c-0.499-0.321-1.179-0.239-1.606,0.232c-0.378,0.416-0.738,0.925-0.886,1.454c-0.349,1.245-0.619,2.518-0.83,3.794
		c-1.243,7.496-2.467,14.996-3.682,22.496C335.349,101.983,335.038,104.196,334.706,106.405z"/>
	<path class="st0" d="M395.315,63.82c5.766,0,11.306,0,17.026,0c-0.617,17.461-1.23,34.835-1.847,52.304c-4.05,0-7.965,0-12.052,0
		c0.297-3.067,0.588-6.074,0.886-9.158c-1.341-0.275-2.619-0.124-4.061-0.101c-0.743,3.075-1.484,6.14-2.238,9.256
		c-4.051,0-8.051,0-12.204,0C385.679,98.602,390.495,81.217,395.315,63.82z M402.08,77.952c-0.091-0.017-0.182-0.034-0.273-0.051
		c-1.808,6.425-3.612,12.851-5.104,19.424c1.385,0,2.568,0,3.806,0C401.038,90.804,401.559,84.378,402.08,77.952z"/>
	<path class="st0" d="M468.841,116.152c-4.105,0-7.988,0-12.052,0c0.299-3.09,0.59-6.096,0.887-9.17
		c-1.332-0.327-2.613-0.074-4.041-0.189c-0.76,3.14-1.502,6.203-2.259,9.33c-4.044,0-8.042,0-12.201,0
		c4.853-17.518,9.668-34.902,14.489-52.304c5.68,0,11.259,0,17.024,0C470.073,81.277,469.459,98.65,468.841,116.152z
		 M458.857,97.343c0.532-6.57,1.049-12.969,1.567-19.367c-0.094-0.013-0.189-0.026-0.283-0.04
		c-1.793,6.407-3.592,12.812-5.095,19.407C456.396,97.343,457.578,97.343,458.857,97.343z"/>
	<path class="st0" d="M373.075,86.655c0.391-2.43,0.764-4.674,1.109-6.922c0.285-1.856,0.537-3.717,0.801-5.577
		c0.031-0.221,0.066-0.447,0.057-0.668c-0.029-0.668,0.01-1.384-0.757-1.72c-0.754-0.33-1.977-0.062-2.431,0.627
		c-0.337,0.511-0.608,1.112-0.729,1.709c-0.491,2.409-0.949,4.826-1.353,7.251c-1.153,6.926-2.287,13.856-3.394,20.789
		c-0.232,1.454-0.369,2.929-0.451,4.4c-0.061,1.085,0.25,1.534,0.917,1.732c0.919,0.273,1.885-0.025,2.311-0.896
		c0.388-0.793,0.678-1.663,0.844-2.53c0.504-2.635,0.926-5.285,1.383-7.929c0.091-0.527,0.194-1.052,0.308-1.668
		c3.901,0,7.771,0,11.785,0c-0.363,2.025-0.651,4.008-1.086,5.959c-0.476,2.135-0.891,4.316-1.679,6.342
		c-2.211,5.683-6.558,8.731-12.524,9.616c-2.483,0.368-4.922,0.133-7.296-0.594c-4.05-1.24-6.317-4.338-6.462-8.576
		c-0.122-3.556,0.344-7.058,0.904-10.55c0.934-5.828,1.89-11.654,2.89-17.471c0.348-2.024,0.778-4.041,1.299-6.027
		c1.398-5.327,5.973-10.205,12.794-11.109c2.534-0.336,5.002-0.215,7.425,0.552c4.15,1.313,6.507,4.38,6.737,8.706
		c0.161,3.013-0.248,5.985-0.696,8.952c-0.22,1.459-0.468,2.914-0.713,4.369c-0.066,0.392-0.166,0.778-0.265,1.233
		C380.92,86.655,377.093,86.655,373.075,86.655z"/>
	<path class="st0" d="M414.987,97.418c3.578,0,7.102,0,10.783,0c-0.17,1.145-0.327,2.194-0.481,3.243
		c-0.253,1.725-0.506,3.449-0.753,5.175c-0.038,0.265-0.067,0.536-0.055,0.802c0.028,0.639,0.091,1.316,0.794,1.567
		c0.695,0.249,1.475,0.28,2.019-0.291c0.48-0.504,0.932-1.112,1.167-1.757c0.744-2.039,0.936-4.179,0.875-6.339
		c-0.029-1.028-0.433-1.916-1.17-2.634c-1.25-1.218-2.507-2.429-3.775-3.628c-1.301-1.23-2.613-2.449-3.931-3.661
		c-1.995-1.834-2.936-4.19-3.052-6.808c-0.204-4.619,0.625-9.101,2.488-13.336c1.314-2.986,3.762-4.864,6.756-5.985
		c3.805-1.424,7.7-1.539,11.578-0.313c1.089,0.345,2.136,0.924,3.095,1.557c1.837,1.213,2.778,3.004,2.877,5.199
		c0.14,3.106-0.367,6.151-0.944,9.186c-0.015,0.08-0.095,0.148-0.189,0.287c-3.477,0-6.998,0-10.588,0
		c-0.229-1.117,0.229-2.131,0.323-3.172c0.092-1.023,0.292-2.036,0.383-3.059c0.06-0.678,0.016-1.379-0.753-1.704
		c-0.679-0.287-1.715-0.043-2.149,0.682c-1.391,2.326-1.888,4.882-1.006,7.45c0.345,1.006,1.413,1.806,2.256,2.589
		c1.048,0.973,2.26,1.769,3.298,2.751c1.395,1.32,2.738,2.703,4.015,4.137c1.39,1.56,2.029,3.478,2.122,5.538
		c0.217,4.788-0.513,9.453-2.022,13.995c-0.854,2.57-2.494,4.522-4.807,5.912c-4.427,2.661-9.155,3.241-14.064,1.756
		c-2.971-0.899-5.264-2.743-6.065-5.902c-0.314-1.239-0.45-2.587-0.339-3.856c0.26-2.981,0.717-5.945,1.102-8.915
		C414.792,97.76,414.882,97.644,414.987,97.418z"/>
	<path class="st0" d="M293.535,116.136c2.856-17.485,5.694-34.855,8.56-52.396c0.478,0,0.912,0,1.347,0
		c3.719,0,7.438-0.03,11.157,0.012c2.057,0.023,4.116,0.161,6.106,0.757c3.221,0.964,4.924,3.024,4.936,6.362
		c0.008,2.225-0.218,4.466-0.531,6.673c-0.427,3.007-1.03,5.99-1.575,8.98c-0.096,0.525-0.273,1.037-0.424,1.551
		c-1.172,4.017-3.982,6.137-8,6.758c-1.363,0.211-2.76,0.207-4.143,0.274c-0.708,0.034-1.419,0.006-2.189,0.006
		c-1.16,7.067-2.301,14.02-3.45,21.021C301.38,116.136,297.555,116.136,293.535,116.136z M310.274,85.944
		c2.464,0.198,3.254-0.299,3.865-2.416c0.296-1.027,0.507-2.087,0.663-3.145c0.268-1.811,0.536-3.627,0.662-5.451
		c0.088-1.276-0.304-1.675-1.533-1.967c-0.46-0.11-0.949-0.104-1.51-0.159C311.698,77.236,310.993,81.545,310.274,85.944z"/>
	<path class="st0" d="M247.46,84.178c2.504,0,4.818,0,7.304,0c-0.564,3.443-1.103,6.727-1.651,10.071c-2.477,0-4.799,0-7.286,0
		c-0.622,3.781-1.235,7.504-1.87,11.367c2.865,0,5.628,0,8.578,0c-0.579,3.564-1.134,6.979-1.684,10.366
		c-1.032,0.295-18.853,0.352-20.399,0.054c2.844-17.4,5.688-34.803,8.538-52.238c6.545,0,12.934,0,19.517,0
		c-0.376,3.552-1.083,6.978-1.64,10.552c-2.619,0-5.151,0-7.792,0C248.535,77.629,248.016,80.791,247.46,84.178z"/>
	<path class="st0" d="M220.908,116.149c-4.005,0-7.798,0-11.792,0c2.273-13.934,4.53-27.766,6.815-41.771c-2.308,0-4.526,0-6.912,0
		c0.597-3.646,1.163-7.104,1.73-10.565c8.614,0,17.062,0,25.657,0c-0.572,3.519-1.129,6.945-1.71,10.519c-2.291,0-4.553,0-6.945,0
		C225.459,88.332,223.19,102.203,220.908,116.149z"/>
	<path class="st0" d="M474.554,116.638c-2.182-0.003-3.755-1.62-3.738-3.84c0.016-2.137,1.592-3.726,3.71-3.741
		c2.159-0.015,3.808,1.637,3.85,3.777C478.415,114.799,476.618,116.822,474.554,116.638z M474.527,116.082
		c1.755,0.019,3.239-1.485,3.221-3.261c-0.018-1.741-1.428-3.177-3.14-3.196c-1.767-0.019-3.231,1.461-3.215,3.25
		C471.41,114.608,472.832,116.064,474.527,116.082z"/>
	<path class="st0" d="M182.604,89.987c0.006,28.478-17.799,52.871-43.947,61.124c-4.492,1.418-9.088,2.287-13.796,2.611
		c-16.177,1.115-30.646-3.374-43.266-13.475c-11.907-9.531-19.486-21.872-22.366-36.857c-3.669-19.082,0.431-36.493,12.451-51.797
		c9.537-12.143,22.054-19.653,37.269-22.603c5-0.969,10.056-1.373,15.104-0.939c22.828,1.96,39.82,13.084,51.025,32.989
		c4.134,7.344,6.369,15.338,7.211,23.712C182.494,86.799,182.539,88.862,182.604,89.987z M119.989,30.051
		c-3.582-0.083-7.443,0.326-11.273,1.09c-11.688,2.328-21.814,7.667-30.279,16.008c-10.848,10.688-16.921,23.676-18.214,38.87
		c-0.743,8.737,0.396,17.235,3.328,25.482c7.689,21.631,27.564,38.584,53.1,40.259c6.514,0.427,12.953-0.25,19.263-2.004
		c25.157-6.996,43.094-29.255,44.515-55.317c0.522-9.575-1.055-18.808-4.84-27.638C166.021,44.483,144.085,29.871,119.989,30.051z"
		/>
	<path class="st0" d="M473.086,115.002c0-1.475,0-2.796,0-4.283c0.563,0,1.085,0.003,1.607-0.001
		c0.605-0.004,1.202,0.066,1.476,0.693c0.261,0.598,0.08,1.136-0.45,1.564c0.492,0.583,0.696,1.208,0.278,2.09
		c-0.225-0.266-0.443-0.415-0.504-0.613c-0.335-1.091-0.321-1.095-1.526-1.005C473.537,113.834,474.202,114.741,473.086,115.002z
		 M473.882,112.584c0.567,0.048,1.105,0.246,1.482-0.285c0.1-0.141,0.096-0.474-0.005-0.618c-0.36-0.515-0.889-0.431-1.477-0.343
		C473.882,111.771,473.882,112.144,473.882,112.584z"/>
	<path class="st0" d="M109.56,89.615c0.773,1.133,1.495,2.192,2.267,3.323c0.588-0.345,1.119-0.656,1.717-1.007
		c-0.179-2.247,0.288-4.285,1.983-5.878c1.077-1.012,2.339-1.585,3.836-1.713c3.584-0.305,6.176,2.229,6.757,4.916
		c0.63,2.917-0.492,6.495-4.906,7.867c0,0.442,0,0.91,0,1.535c1.449,0,2.861,0,4.483,0c-1.588,12.433-3.295,24.667-4.891,37.007
		c0.789,0.048,1.489,0.091,2.383,0.146c0.01,4.265,0.004,8.492,0.004,12.819c-2.525,0-4.961,0-7.45,0c0-4.278,0-8.474,0-12.842
		c1.207,0,2.388,0,3.754,0c-1.552-12.278-3.08-24.363-4.625-36.579c-0.538,0.251-0.94,0.429-1.333,0.624
		c-10.611,5.263-21.221,10.53-31.836,15.784c-0.418,0.207-0.857,0.744-1.401,0.173C80.905,114.825,106.486,91.936,109.56,89.615z
		 M114.277,93.923c-0.456,0.29-0.839,0.534-1.272,0.81c0.801,1.203,1.526,2.323,2.291,3.415c0.159,0.228,0.463,0.498,0.703,0.501
		c1.003,0.011,2.026,0.189,3.088-0.151c-0.028-0.471-0.053-0.898-0.08-1.36C116.921,96.785,115.441,95.648,114.277,93.923z"/>
	<path class="st0" d="M95.307,65.522c-0.502,3.029-1.004,6.057-1.526,9.21c-1.186,0.208-2.356,0.123-3.668,0.045
		c1.005-6.149,1.99-12.178,2.984-18.26c1.772,0,3.46,0,5.286,0c0.243,2.322-0.177,4.649,0.054,7.009
		c0.655-2.34,1.309-4.68,1.967-7.031c1.787,0,3.479,0,5.377,0c-0.927,6.138-1.967,12.178-2.965,18.279c-1.221,0-2.323,0-3.636,0
		c0.49-3.087,0.969-6.104,1.448-9.12c-0.073-0.017-0.147-0.034-0.22-0.051c-0.854,3.017-1.707,6.035-2.586,9.141
		c-0.84,0-1.659,0-2.615,0c0.113-3.108,0.223-6.136,0.333-9.163C95.461,65.562,95.384,65.542,95.307,65.522z"/>
	<path class="st0" d="M114.598,70.403c0.239-1.545,0.569-3.752,0.927-5.954c0.215-1.322,0.431-2.646,0.726-3.951
		c0.707-3.128,3.18-4.792,6.372-4.338c1.751,0.249,2.946,1.455,2.997,3.231c0.032,1.107-0.107,2.23-0.279,3.328
		c-0.422,2.69-0.836,5.385-1.387,8.05c-0.571,2.764-2.624,4.41-5.29,4.446C115.969,75.251,114.493,73.756,114.598,70.403z
		 M118.685,71.912c0.116,0.05,0.233,0.1,0.349,0.15c0.205-0.19,0.496-0.343,0.597-0.578c0.173-0.405,0.254-0.856,0.327-1.295
		c0.521-3.128,1.037-6.256,1.537-9.387c0.073-0.46,0.052-0.936,0.072-1.348c-0.598-0.241-0.854-0.017-1,0.35
		c-0.115,0.288-0.193,0.598-0.243,0.905c-0.551,3.349-1.1,6.699-1.631,10.052C118.634,71.135,118.685,71.527,118.685,71.912z"/>
	<path class="st0" d="M139.715,56.514c1.992,0,3.903,0,6.015,0c-0.211,6.052-0.421,12.091-0.635,18.231c-1.431,0-2.745,0-4.232,0
		c0.069-1.042,0.136-2.045,0.21-3.149c-0.428-0.03-0.805-0.057-1.269-0.09c-0.279,1.095-0.541,2.122-0.827,3.24
		c-1.381,0-2.74,0-4.304,0C136.364,68.633,138.034,62.594,139.715,56.514z M142.001,62.46c-0.763,1.832-1.327,3.705-1.652,5.777
		c0.494-0.045,0.819-0.075,1.195-0.109C141.701,66.177,141.851,64.319,142.001,62.46z"/>
	<path class="st0" d="M165.327,74.779c-1.365,0-2.648,0-4.054,0c0.062-1.076,0.12-2.081,0.184-3.179c-0.463,0-0.835,0-1.282,0
		c-0.27,1.039-0.536,2.066-0.819,3.152c-1.394,0-2.75,0-4.298,0c1.702-6.152,3.366-12.167,5.045-18.236c1.952,0,3.866,0,5.782,0
		C166.169,57.428,165.721,72.602,165.327,74.779z M162.414,62.274c-0.068-0.015-0.135-0.029-0.203-0.044
		c-0.512,1.948-1.025,3.896-1.563,5.943c0.529,0,0.861,0,1.265,0C162.083,66.169,162.249,64.222,162.414,62.274z"/>
	<path class="st0" d="M136.079,64.431c-1.336,0-2.622,0-4.053,0c0.221-1.679,0.433-3.288,0.645-4.892
		c-0.678-0.367-1.055-0.217-1.268,0.355c-0.093,0.249-0.146,0.516-0.189,0.779c-0.543,3.308-1.082,6.617-1.618,9.926
		c-0.043,0.263-0.108,0.548-0.048,0.795c0.053,0.219,0.244,0.536,0.413,0.562c0.194,0.03,0.543-0.16,0.627-0.344
		c0.2-0.44,0.313-0.928,0.409-1.406c0.175-0.871,0.312-1.75,0.476-2.691c1.384,0,2.701,0,4.12,0
		c-0.196,1.754-0.434,3.439-1.218,4.958c-1.257,2.434-4.803,3.48-7.244,2.223c-0.897-0.461-1.544-1.17-1.591-2.173
		c-0.058-1.241-0.038-2.505,0.135-3.733c0.369-2.61,0.856-5.203,1.305-7.802c0.068-0.395,0.162-0.791,0.292-1.17
		c1.04-3.056,4.01-4.387,7.155-3.46c1.425,0.42,2.2,1.533,2.251,3.001C136.739,61.066,136.497,62.74,136.079,64.431z"/>
	<path class="st0" d="M156.477,62.07c-0.69,0-1.268,0-1.846,0c-0.577,0-1.155,0-1.899,0c0.068-0.65,0.133-1.203,0.181-1.757
		c0.033-0.387,0.181-0.879-0.393-0.97c-0.504-0.079-0.669,0.361-0.803,0.746c-0.456,1.309-0.238,2.055,0.815,2.974
		c0.741,0.647,1.49,1.29,2.183,1.986c0.725,0.728,1.124,1.64,1.017,2.676c-0.142,1.373-0.281,2.756-0.574,4.102
		c-0.728,3.347-5.561,4.24-7.838,2.568c-0.878-0.644-1.227-1.56-1.192-2.575c0.04-1.154,0.238-2.302,0.375-3.524
		c1.339,0,2.563,0,3.844,0c-0.119,1.253-0.231,2.427-0.337,3.546c0.741,0.297,1.021-0.027,1.244-0.457
		c0.715-1.38,0.468-2.781-0.692-3.88c-0.618-0.585-1.243-1.162-1.876-1.731c-0.932-0.839-1.377-1.911-1.244-3.124
		c0.136-1.235,0.391-2.467,0.716-3.668c0.308-1.14,1.135-1.917,2.205-2.391c1.494-0.663,3.043-0.711,4.578-0.181
		c1.403,0.485,1.911,1.256,1.909,2.722c-0.001,0.536-0.031,1.075-0.092,1.608C156.71,61.139,156.594,61.528,156.477,62.07z"/>
	<path class="st0" d="M109.562,67.429c-0.425,2.541-0.815,4.872-1.223,7.307c-1.371,0-2.71,0-4.171,0
		c1.004-6.142,1.988-12.159,2.982-18.236c1.965,0,3.844-0.117,5.701,0.032c1.95,0.156,2.725,1.097,2.563,3.028
		c-0.145,1.728-0.426,3.458-0.814,5.148c-0.405,1.766-1.539,2.594-3.362,2.715C110.711,67.458,110.181,67.429,109.562,67.429z
		 M110.104,64.115c0.761,0.217,1.092-0.175,1.21-0.657c0.233-0.949,0.404-1.918,0.521-2.888c0.069-0.567-0.228-0.932-1.009-0.847
		C110.588,61.168,110.347,62.637,110.104,64.115z"/>
	<path class="st0" d="M86.913,71.015c1.019,0,1.932,0,2.995,0c-0.231,1.372-0.428,2.546-0.631,3.746c-2.4,0-4.706,0-7.162,0
		c1.001-6.131,1.984-12.153,2.978-18.238c2.293,0,4.514,0,6.891,0c-0.19,1.203-0.374,2.364-0.574,3.628c-0.89,0-1.727,0-2.698,0
		c-0.189,1.12-0.362,2.153-0.56,3.326c0.866,0.062,1.599,0.114,2.507,0.179c-0.199,1.184-0.385,2.293-0.583,3.476
		c-0.861,0-1.613,0-2.503,0C87.357,68.408,87.152,69.615,86.913,71.015z"/>
	<path class="st0" d="M115.771,34.963c2.482,0,4.875,0,7.346,0c0,4.246,0,8.426,0.001,12.606c-0.941,0.284-5.81,0.334-7.346,0.061
		C115.771,43.469,115.771,39.293,115.771,34.963z"/>
	<path class="st0" d="M77.014,60.273c-0.821-0.059-1.518-0.109-2.316-0.166c0.072-0.603,0.115-1.13,0.202-1.649
		c0.108-0.649,0.252-1.293,0.383-1.955c2.993,0,5.887,0,8.962,0c-0.2,1.24-0.386,2.401-0.584,3.63
		c-0.82,0.037-1.567,0.071-2.423,0.109c-0.802,4.854-1.6,9.68-2.402,14.534c-1.404,0-2.683,0-4.157,0
		C75.464,69.9,76.233,65.124,77.014,60.273z"/>
	<path class="st0" d="M162.748,92.348c0-2.512,0-4.905,0-7.375c4.2,0,8.334,0,12.563,0c0,2.446,0,4.87,0,7.375
		C171.139,92.348,167.007,92.348,162.748,92.348z"/>
	<path class="st0" d="M63.854,84.962c4.209,0,8.352,0,12.591,0c0,2.476,0,4.9,0,7.396c-4.219,0-8.361,0-12.591,0
		C63.854,89.916,63.854,87.52,63.854,84.962z"/>
</g>
</svg>
