<?xml version="1.0" encoding="UTF-8"?>
<svg xmlns="http://www.w3.org/2000/svg" height="35" width="204" viewBox="0 0 636 109.1">
  <defs></defs>
  <path class="cls-1" d="M147.7,51.7a132.21,132.21,0,0,0-7.8,13.7h-.3a131.86,131.86,0,0,0-8.3-12.9l-26.8-38H82V123.4h24.7V67c0-3,0-7.3-.2-10.9h.3A108.12,108.12,0,0,0,114,66.7l20,27.8h10.9l17.6-26.8c1.8-2.8,6.2-9.3,7.1-11.6h.2c-.2,3.3-.2,7.8-.2,11.7v55.5h24.7V14.5H171.7Z" transform="translate(-82 -14.4)"></path>
  <path class="cls-1" d="M242.5,14.4l-41.9,109h24.3l9.7-25.9h34.7l10.2,25.9h26.7L262,14.4Zm-1,63.1L248,60a86.2,86.2,0,0,0,3.9-13h.2A94.17,94.17,0,0,0,256,60.3l5.8,17.1H241.5Z" transform="translate(-82 -14.4)"></path>
  <path class="cls-1" d="M437.3,14.4,396.6,120c-14.7-25.8-24-42.4-29.6-45.7v-.2c9.4-4.5,19-14.1,19-27.9,0-17-10.4-31.7-39.8-31.7H312.7V123.4h24.9V82.6h7.5c3.6,1.5,9.3,12.4,25.4,40.8h49.2l9.7-25.9H464l10.2,25.9h26.7l-44.2-109ZM346.7,64.6h-9.1V35.2h9.3c8.9,0,14.8,5.9,14.8,13.9-.1,8.9-6.4,15.5-15,15.5m89.6,12.9L442.8,60a86.2,86.2,0,0,0,3.9-13h.2a94.17,94.17,0,0,0,3.9,13.3l5.8,17.1H436.3Z" transform="translate(-82 -14.4)"></path>
  <polygon class="cls-1" points="422.9 0.1 428.7 20 472.9 19.6 419.1 109.1 510.3 109.1 510.3 88.7 459.1 89.2 511.3 0.1 422.9 0.1"></polygon>
  <polygon class="cls-1" points="515.2 0.1 521.1 20 565.3 19.6 511.5 109.1 602.7 109.1 602.7 88.7 551.5 89.2 603.6 0.1 515.2 0.1"></polygon>
  <rect class="cls-1" x="611.1" y="0.1" width="24.9" height="108.9"></rect>
</svg>
